<?xml version="1.0" standalone="no"?>
<!DOCTYPE svg PUBLIC "-//W3C//DTD SVG 20010904//EN"
 "http://www.w3.org/TR/2001/REC-SVG-20010904/DTD/svg10.dtd">
<svg version="1.0" xmlns="http://www.w3.org/2000/svg"
 width="219.000000pt" height="219.000000pt" viewBox="0 0 219.000000 219.000000"
 preserveAspectRatio="xMidYMid meet">

<g transform="translate(0.000000,219.000000) scale(0.100000,-0.100000)"
fill="#000000" stroke="none">
<path d="M900 2123 c-208 -29 -352 -113 -438 -256 -40 -67 -82 -187 -81 -230
1 -31 1 -31 9 -7 7 22 8 21 9 -12 2 -61 51 -40 51 21 0 29 19 36 24 9 18 -88
17 -88 38 -8 47 180 160 294 326 329 33 7 186 11 412 11 197 0 365 3 374 6 9
3 16 11 16 18 0 6 9 18 20 26 24 17 26 62 4 84 -14 15 -58 16 -377 15 -199 -1
-373 -4 -387 -6z m58 -20 c-10 -2 -28 -2 -40 0 -13 2 -5 4 17 4 22 1 32 -1 23
-4z m267 -32 c17 -4 -45 -10 -145 -13 -244 -9 -350 -42 -471 -146 -30 -25 -46
-37 -36 -26 9 11 17 25 17 31 0 18 100 94 157 119 29 13 74 28 100 33 56 10
334 12 378 2z m-195 -50 l42 -19 -108 -6 c-60 -4 -125 -9 -144 -12 l-35 -6 25
20 c51 40 157 51 220 23z"/>
<path d="M628 1813 c-57 -59 -107 -175 -108 -248 0 -15 2 -17 9 -6 7 11 9 11
13 0 2 -7 12 18 21 56 9 37 29 89 44 114 15 25 28 54 29 64 1 9 9 26 19 37 32
35 10 21 -27 -17z"/>
<path d="M1295 1790 c-13 -6 7 -9 63 -9 53 -1 81 3 77 9 -7 12 -112 12 -140 0z"/>
<path d="M1565 1783 c46 -3 76 -10 87 -20 20 -18 25 -4 6 15 -8 8 -40 11 -87
10 l-76 -2 70 -3z"/>
<path d="M1320 1759 c19 -5 88 -6 153 -3 88 5 125 3 143 -6 13 -8 27 -10 31
-6 19 19 -36 26 -192 25 -121 -1 -160 -4 -135 -10z"/>
<path d="M1370 1720 c0 -5 16 -10 35 -10 19 0 35 5 35 10 0 6 -16 10 -35 10
-19 0 -35 -4 -35 -10z"/>
<path d="M1610 1700 c0 -26 -3 -30 -29 -30 -15 0 -48 -3 -72 -6 -36 -5 -48 -2
-69 16 -20 17 -26 19 -35 8 -5 -8 -26 -19 -45 -25 -29 -9 -8 -11 115 -10 l150
2 3 38 c2 21 -1 37 -7 37 -6 0 -11 -13 -11 -30z"/>
<path d="M1645 1640 c-4 -6 -1 -10 4 -10 6 0 11 -6 11 -14 0 -8 5 -18 10 -21
6 -3 10 5 10 18 0 25 -25 44 -35 27z"/>
<path d="M1198 1363 c7 -3 16 -2 19 1 4 3 -2 6 -13 5 -11 0 -14 -3 -6 -6z"/>
<path d="M1258 1353 c7 -3 16 -2 19 1 4 3 -2 6 -13 5 -11 0 -14 -3 -6 -6z"/>
<path d="M1298 1343 c7 -3 16 -2 19 1 4 3 -2 6 -13 5 -11 0 -14 -3 -6 -6z"/>
<path d="M1258 1326 c129 -33 291 -147 319 -224 l12 -33 -53 48 c-38 35 -62
49 -87 51 l-34 2 47 -40 c89 -77 170 -233 167 -324 0 -24 -4 -17 -15 28 -16
68 -65 164 -100 197 -23 22 -24 22 -21 3 1 -11 19 -52 39 -90 20 -38 41 -94
48 -125 19 -84 8 -219 -23 -308 -17 -46 -21 -69 -13 -62 11 9 15 9 19 -1 4 -9
13 -5 29 14 26 31 41 26 55 -16 l9 -29 22 51 c12 28 30 86 38 129 9 43 19 80
21 83 14 12 -10 -139 -32 -208 -14 -42 -20 -78 -15 -80 5 -2 7 -11 4 -20 -3
-9 4 -1 15 20 35 62 62 180 63 275 3 222 -64 399 -201 533 -53 52 -165 120
-221 134 -14 4 3 -7 38 -23 34 -16 62 -32 62 -34 0 -3 -34 8 -75 24 -41 16
-96 32 -122 34 l-48 5 53 -14z"/>
<path d="M570 1296 c0 -15 51 -98 57 -92 4 3 -1 14 -9 23 -9 10 -23 32 -31 48
-9 17 -16 26 -17 21z"/>
<path d="M1270 1226 c25 -7 67 -22 94 -34 34 -16 45 -18 36 -7 -13 16 -130 56
-159 54 -9 0 4 -6 29 -13z"/>
<path d="M580 1220 c0 -43 84 -126 162 -159 82 -35 107 -34 40 3 -73 40 -94
55 -87 66 2 4 -11 22 -30 40 -19 19 -35 30 -35 25 0 -5 -11 2 -25 15 -15 14
-25 18 -25 10z"/>
<path d="M490 1193 c0 -5 21 -36 48 -71 53 -70 147 -141 229 -172 75 -28 78
-25 8 10 -67 33 -138 87 -130 100 3 5 0 12 -6 16 -8 5 -9 3 -4 -7 5 -8 -24 19
-64 59 -71 71 -81 79 -81 65z"/>
<path d="M480 1137 c0 -4 8 -20 17 -35 l17 -27 -24 20 -24 20 21 -30 c21 -30
73 -80 59 -57 -11 19 5 14 33 -10 14 -13 8 -3 -14 22 -22 25 -50 59 -62 75
-12 17 -23 26 -23 22z"/>
<path d="M700 1126 c0 -8 64 -44 90 -50 14 -4 1 7 -29 23 -55 32 -61 34 -61
27z"/>
<path d="M1290 985 c14 -16 13 -17 -8 -11 -30 10 -28 -2 9 -40 44 -46 32 -59
-21 -23 -24 17 -46 25 -48 20 -2 -6 -25 -11 -50 -12 l-47 -1 35 -10 c61 -17
100 -40 120 -73 26 -41 29 -82 4 -45 -10 14 -24 31 -32 37 -26 22 -33 -7 -9
-39 26 -36 28 -114 4 -152 -41 -61 -38 -61 -427 -64 -195 -1 -365 -4 -377 -7
-15 -4 -23 -13 -23 -26 0 -11 4 -18 8 -15 5 3 15 -6 22 -20 8 -14 19 -22 28
-19 7 3 35 6 60 7 l47 1 -54 6 c-30 3 -56 12 -59 19 -3 9 72 12 353 12 226 0
372 4 400 11 24 6 49 9 56 7 24 -8 -41 -38 -103 -46 l-63 -10 69 -1 c68 -1 69
-1 51 -21 -23 -25 -14 -25 33 -1 42 22 89 69 122 121 17 28 20 30 15 10 -4
-14 -18 -45 -31 -69 -13 -24 -24 -44 -24 -45 0 -1 9 -2 21 -2 48 0 104 156 93
256 -12 101 -81 205 -165 251 -23 11 -23 11 -9 -6z m-525 -435 c-38 -4 -79 -4
-90 1 -12 5 16 7 70 7 l90 -1 -70 -7z"/>
</g>
</svg>
